<?xml version="1.0" encoding="UTF-8"?>
<svg id="Nuage" xmlns="http://www.w3.org/2000/svg" viewBox="0 0 1470.638352236481296 309.977035130873446">
  <defs>
    <style>
      .cls-1 {
        fill: #fcee21;
      }

      .cls-1, .cls-2 {
        stroke: #000;
        stroke-miterlimit: 10;
      }

      .cls-2 {
        fill: #fbb03b;
      }
    </style>
  </defs>
  <path class="cls-1" d="M.787737910308351,143.475332357799743c-.01812744140625.56878662109375,994.02297012940835,26.613116783624719,1008.244233151701337,25.565234245139436,12.036366564161654-.886890167887032,26.505085420791147-7.294545280651619,30.638297872337716,11.574468085104854,7.829787234042669,35.744680851064004,19.821421287757403,90.924267901523308,36.604453228890634,96.144324769365085,17.982934355777616,5.593264692402954,33.732421875,4.5589599609375,40.458251953125,2.728271484375,13.125-3.5723876953125,30.719970703125-13.45068359375,30.7196044921875-13.45166015625-.00146484375.0008544921875,7.263427734375,12.564697265625,10.699951171875,17.61700439453125,9.512939453125,13.986083984375,23.38525390625,19.95269775390625,26.982421875,21.44683837890625,1.4542236328125.60400390625,28.2742919921875,11.26123046875,50.70849609375-3.0638427734375,13.5740966796875-8.66754150390625,26.0533447265625-26.807373046875,26.052001953125-26.80853271484375.0008544921875.00152587890625,16.671142578125,12.9578857421875,32.5650634765625,17.6170654296875,15.916259765625,4.665771484375,29.7705078125.634765625,37.21728515625-1.53192138671875,6.856201171875-1.994873046875,24.449462890625-7.11376953125,37.682373046875-23.4893798828125,10.23974609375-12.67156982421875,18.14453125-32.42486572265625,18.1434326171875-32.425537109375,27.3074951171875,4.7987060546875,32.0997314453125,4.3404541015625,32.099853515625,4.3404541015625,19.1541748046875-1.83148193359375,32.355712890625-18.07232666015625,34.89111328125-21.1915283203125,13.5845947265625-16.71234130859375,19.0531005859375-40.836822509765625,13.4912109375-62.553192138671875-1.080810546875-4.22003173828125-5.4144287109375-20.3209228515625-18.608642578125-31.6595458984375-11.70361328125-10.057769775390625-23.725830078125-12.76593017578125-23.7259521484375-12.765960693359375-9.9810791015625-2.9879150390625-15.35205078125-4.59576416015625-15.35205078125-4.59576416015625-.0001220703125-.000457763671875-.7847900390625-8.183563232421875-.930419921875-9.702117919921875-.6202392578125-6.466644287109375-.9302978515625-9.70001220703125-.9305419921875-9.702117919921875-.83251953125-8.322845458984375-13.7191162109375-41.5169677734375-44.142578125-51.72314453125-11.6357421875-3.9034423828125-21.4637451171875-2.88336181640625-25.6396484375-2.404541015625-23.2745361328125,2.668853759765625-45.124755859375,18.891845703125-45.1258544921875,18.893646240234375-18.548828125-29.6185302734375-24.6563720703125-35.2340087890625-24.6563720703125-35.23406982421875-13.15625-12.096435546875-28.0860595703125-14.77728271484375-34.4259033203125-15.82977294921875-3.1123046875-.516693115234375-30.043701171875-4.5523681640625-54.1976318359375,12.765960693359375-17.2255859375,12.35076904296875-31.8677978515625,34.722564697265625-31.8671875,34.723388671875-9.486572265625-13.10845947265625-11.63037109375-15.319091796875-11.63037109375-15.31915283203125-6.3260498046875-6.52349853515625-13.060546875-9.121490478515625-17.2130126953125-10.723388671875-15.746826171875-6.07470703125-40.1302490234375-3.823394775390625-57.6866455078125,12.25531005859375-15.673095703125,14.3538818359375-24.6065673828125,38.538360595703125-23.2607421875,59.234039306640625.56640625,8.710845947265625,3.4320068359375,16.17388916015625-.6978759765625,23.234039306640625-4.9454345703125,8.4544677734375-15.83447265625,9.785308837890625-22.3809814453125,10.488189697265625-26.1256103515625,2.8050537109375-39.1883544921875,4.20758056640625-63.1243896484375,4.366943359375-43.162353515625.287353515625-92.152587890625,5.083526611328125-93.3653564453125,4.77447509765625-.015625-.00396728515625-.2152099609375.00738525390625-.2149658203125.0108642578125,0,.00091552734375.0206298828125.00103759765625.020751953125.00103759765625.01220703125.0020751953125-859.333847045898438,5.137054443359375-859.32940673828125,6.426971435546875.002670288085938.78564453125,1.331436157226562-1.402435302734375,1.287734985351562-.033355712890625Z"/>
  <path class="cls-2" d="M1301.438784663238039,214.206136801159118c.8260498046875-.17364501953125.202880859375-4.0904541015625.930419921875-11.74468994140625.7088623046875-7.45782470703125,1.2154541015625-12.78717041015625,3.7216796875-17.872314453125,5.4295654296875-11.016357421875,16.8702392578125-14.040771484375,17.9107666015625-14.29791259765625,7.4378662109375-1.837890625,13.4483642578125.29071044921875,16.747802734375,1.53192138671875,14.3961181640625,5.41583251953125,20.920166015625,19.05767822265625,22.330322265625,22.2127685546875,4.396728515625,9.83746337890625,4.2498779296875,18.708984375,4.1868896484375,20.68084716796875-.6005859375,18.82635498046875-12.8807373046875,31.13812255859375-15.584716796875,33.7021484375-20.047607421875,19.01019287109375-51.160400390625,11.83734130859375-68.851806640625,1.021240234375-5.8941650390625-3.603515625-22.0360107421875-13.4722900390625-22.7955322265625-28.0850830078125-.8216552734375-15.8067626953125,17.443603515625-27.2327880859375,15.35205078125-30.12762451171875-1.6466064453125-2.279296875-14.098388671875,3.14276123046875-21.8651123046875,13.7872314453125-4.5557861328125,6.24383544921875-6.264404296875,12.5919189453125-6.8619384765625,15.21856689453125-2.1539306640625,9.470703125.2010498046875,14.2587890625-.1162109375,21.29205322265625-.618896484375,13.71575927734375-10.878662109375,25.14404296875-17.445556640625,29.872314453125-20.18115234375,14.5306396484375-53.9727783203125,2.530517578125-67.6888427734375-21.44677734375-1.7086181640625-2.9869384765625-12.2548828125-21.42303466796875-4.884765625-39.0638427734375,6.598388671875-15.7935791015625,23.67919921875-21.6668701171875,35.5889892578125-21.44683837890625,18.9249267578125.34967041015625,31.6436767578125,16.21136474609375,32.797607421875,14.55322265625,1.04248046875-1.4979248046875-8.2396240234375-16.0191650390625-23.7259521484375-21.44683837890625-15.7593994140625-5.5233154296875-32.6207275390625.41033935546875-43.2650146484375,9.95745849609375-2.5047607421875,2.24658203125-8.735595703125,7.96636962890625-12.328125,17.6170654296875-3.1900634765625,8.56927490234375-1.51416015625,12.75457763671875-3.02392578125,18.3829345703125-4.1578369140625,15.50042724609375-28.2664794921875,26.05950927734375-48.8475341796875,23.74468994140625-19.26025390625-2.166259765625-41.2303466796875-17.186279296875-44.6607666015625-39.82977294921875-2.1641845703125-14.28485107421875,3.0506591796875-32.6160888671875,13.9564208984375-38.2978515625,12.4595947265625-6.49127197265625,28.8614501953125,3.78045654296875,29.35986328125,2.13568115234375.33154296875-1.09393310546875-7.037109375-5.540283203125-15.635986328125-8.008056640625-2.1883544921875-.6280517578125-4.996826171875-1.282958984375-16.51513671875-2.55316162109375-6.6619873046875-.73468017578125-9.9930419921875-1.10205078125-14.9083251953125-1.45263671875-17.9896240234375-1.28314208984375-36.61962890625-3.6712646484375-55.1065673828125-5.1856689453125-11.797119140625-.9664306640625-28.7994384765625-1.32513427734375-62.803955078125-2.04254150390625-31.8031005859375-.6710205078125-64.954345703125-.9910888671875-67.9254150390625-1.01922607421875-.0032958984375-.00006103515625-.2125244140625-.00201416015625-.2156982421875-.0020751953125-47.272705078125-.45391845703125-858.4332275390625-13.88714599609375-858.4769287109375-12.51806640625-.01812744140625.56878662109375,139.936676025390625,4.71856689453125,858.4769287109375,22.7308349609375,12.514892578125.535400390625,28.5521240234375.921142578125,47.2064208984375,1.53192138671875,38.6142578125,1.2642822265625,61.7020263671875,2.08612060546875,91.0660400390625,5.859619140625,27.18359375,3.4932861328125,39.30029296875,6.88873291015625,43.1484375,16.60845947265625,3.4591064453125,8.7366943359375-3.22900390625,13.82763671875-3.489013671875,28.0850830078125-.43310546875,23.73236083984375,17.3846435546875,48.70404052734375,39.078125,58.46807861328125,17.17333984375,7.7296142578125,33.732421875,4.5589599609375,40.458251953125,2.728271484375,13.125-3.5723876953125,30.719970703125-13.45068359375,30.7196044921875-13.45166015625-.00146484375.0008544921875,7.263427734375,12.564697265625,10.699951171875,17.61700439453125,9.512939453125,13.986083984375,23.38525390625,19.95269775390625,26.982421875,21.44683837890625,1.4542236328125.60400390625,28.2742919921875,11.26123046875,50.70849609375-3.0638427734375,13.5740966796875-8.66754150390625,26.0533447265625-26.807373046875,26.052001953125-26.80853271484375.0008544921875.00152587890625,16.671142578125,12.9578857421875,32.5650634765625,17.6170654296875,15.916259765625,4.665771484375,29.7705078125.634765625,37.21728515625-1.53192138671875,6.856201171875-1.994873046875,24.449462890625-7.11376953125,37.682373046875-23.4893798828125,10.23974609375-12.67156982421875,18.14453125-32.42486572265625,18.1434326171875-32.425537109375,27.3074951171875,4.7987060546875,32.0997314453125,4.3404541015625,32.099853515625,4.3404541015625,19.1541748046875-1.83148193359375,32.355712890625-18.07232666015625,34.89111328125-21.1915283203125,13.5845947265625-16.71234130859375,19.0531005859375-40.8367919921875,13.4912109375-62.55316162109375-1.080810546875-4.22003173828125-5.4144287109375-20.3209228515625-18.608642578125-31.6595458984375-11.70361328125-10.057769775390625-23.725830078125-12.76593017578125-23.7259521484375-12.765960693359375-9.9810791015625-2.9879150390625-15.35205078125-4.59576416015625-15.35205078125-4.59576416015625-.0001220703125-.000457763671875-.7847900390625-8.183563232421875-.930419921875-9.702117919921875-.6202392578125-6.466644287109375-.9302978515625-9.70001220703125-.9305419921875-9.702117919921875-.83251953125-8.322845458984375-13.7191162109375-41.5169677734375-44.142578125-51.72314453125-11.6357421875-3.9034423828125-21.4637451171875-2.88336181640625-25.6396484375-2.404541015625-23.2745361328125,2.668853759765625-45.124755859375,18.891845703125-45.1258544921875,18.893646240234375-18.548828125-29.6185302734375-24.6563720703125-35.2340087890625-24.6563720703125-35.23406982421875-13.15625-12.096435546875-28.0860595703125-14.77728271484375-34.4259033203125-15.82977294921875-3.1123046875-.516693115234375-30.043701171875-4.5523681640625-54.1976318359375,12.765960693359375-17.2255859375,12.35076904296875-31.8677978515625,34.722564697265625-31.8671875,34.723388671875-9.486572265625-13.10845947265625-11.63037109375-15.319091796875-11.63037109375-15.31915283203125-6.3260498046875-6.52349853515625-13.060546875-9.121490478515625-17.2130126953125-10.723388671875-15.746826171875-6.07470703125-40.1302490234375-3.823394775390625-57.6866455078125,12.25531005859375-15.673095703125,14.3538818359375-24.6065673828125,38.538360595703125-23.2607421875,59.234039306640625.56640625,8.710845947265625,3.4320068359375,16.17388916015625-.6978759765625,23.234039306640625-4.9454345703125,8.4544677734375-15.83447265625,9.785308837890625-22.3809814453125,10.488189697265625-26.1256103515625,2.8050537109375-39.1883544921875,4.20758056640625-63.1243896484375,4.366943359375-43.162353515625.287353515625-92.152587890625,5.083526611328125-93.3653564453125,4.77447509765625-.015625-.00396728515625-.2152099609375.00738525390625-.2149658203125.0108642578125,0,.00091552734375.0206298828125.00103759765625.020751953125.00103759765625.01220703125.0020751953125-859.33380126953125,5.137054443359375-859.329360961914062,6.426971435546875.002670288085938.78564453125,318.791580200195312.220123291015625,859.764663696289062-1.302520751953125,46.1002197265625-.73541259765625,82.91455078125-1.716552734375,109.0799560546875-1.531890869140625,11.5888671875.081787109375,25.1763916015625-.71600341796875,40.198974609375-3.32659912109375,12.514892578125-2.1748046875,23.67431640625-5.19915771484375,33.3050537109375-8.4180908203125-.0006103515625.000579833984375,9.5634765625,13.00408935546875,17.6781005859375,18.893585205078125,10.2232666015625,7.4200439453125,24.6588134765625,8.27557373046875,35.8216552734375,4.08514404296875,26.786865234375-10.055572509765625,32.129638671875-48.1915283203125,30.7042236328125-49.02130126953125-1.23583984375-.719482421875-7.821044921875,26.455963134765625-27.44775390625,33.191497802734375-15.1392822265625,5.195556640625-34.8602294921875-2.861419677734375-45.1258544921875-18.382965087890625-14.5736083984375-22.035125732421875-5.9708251953125-52.884765625,7.90869140625-69.446807861328125,12.744384765625-15.207672119140625,29.5472412109375-17.902984619140625,33.0302734375-18.38299560546875,4.1009521484375-.565155029296875,17.107177734375-2.173431396484375,29.7738037109375,5.10638427734375,9.90478515625,5.692535400390625,20.482666015625,17.325927734375,20.483154296875,17.32525634765625-.00048828125.00164794921875-.5810546875,21.86785888671875-.0137939453125,30.67474365234375,1.3756103515625,21.351348876953125,14.735595703125,47.234710693359375,36.984619140625,59.744659423828125,5.4931640625,3.088623046875,30.962890625,16.28961181640625,53.732421875,2.29791259765625,2.7769775390625-1.70648193359375,20.2213134765625-12.42584228515625,22.330322265625-33.446807861328125.1455078125-1.449737548828125,1.814697265625-20.814056396484375-10.45751953125-32.10540771484375-12.5145263671875-11.514434814453125-30.9134521484375-6.708709716796875-30.9466552734375-6.192474365234375-.0240478515625.37445068359375,9.60302734375-1.345703125,17.67822265625,5.10638427734375,6.3963623046875,5.1107177734375,11.6322021484375,15.199676513671875,10.2347412109375,25.021270751953125-2.57568359375,18.102447509765625-26.0250244140625,23.62738037109375-29.7738037109375,24.510650634765625-4.746337890625,1.1182861328125-22.23193359375,4.384002685546875-37.21728515625-8.17022705078125-16.4039306640625-13.742828369140625-17.0137939453125-35.721282958984375-17.212890625-42.89361572265625-.1651611328125-5.95086669921875-.015869140625-28.4774169921875,16.0499267578125-45.95745849609375,13.9818115234375-15.212554931640625,31.2108154296875-16.63861083984375,39.77587890625-17.3616943359375,5.162841796875-.43585205078125,20.474853515625-1.118927001953125,37.2171630859375,7.659576416015625,22.00244140625,11.536468505859375,34.115234375,32.932373046875,33.4954833984375,41.872344970703125-.073486328125,1.06182861328125-.2325439453125,2.29779052734375-.2325439453125,2.297882080078125-1.1153564453125,8.67132568359375-4.9737548828125,14.43414306640625-5.2607421875,15.875823974609375-2.900634765625,14.56939697265625,1.0711669921875,34.800048828125,14.797607421875,47.18798828125,9.0496826171875,8.16717529296875,25.6204833984375,15.88665771484375,39.7572021484375,8.1624755859375,15.4422607421875-8.437530517578125,19.7061767578125-30.782196044921875,17.6968994140625-32.1624755859375-1.86474609375-1.280975341796875-8.1173095703125,16.19158935546875-21.167236328125,18.38299560546875-13.8206787109375,2.32080078125-32.9398193359375-12.888092041015625-35.3564453125-32.68084716796875-2.4014892578125-19.66900634765625,12.8931884765625-34.02191162109375,15.8173828125-36.765960693359375,16.5286865234375-15.510955810546875,45.7369384765625-20.486175537109375,65.5953369140625-2.553192138671875,8.5,9.862274169921875,12.578125,19.490692138671875,14.588623046875,25.453582763671875,2.0960693359375,6.2171630859375,3.714111328125,11.016387939453125,3.341796875,17.56658935546875-.6297607421875,11.07879638671875-6.7005615234375,22.717803955078125-6.7044677734375,22.728729248046875-.000244140625-.000213623046875-4.732421875,4.38165283203125-7.62060546875,8.29364013671875-5.4544677734375,7.388153076171875-6.482177734375,16.012969970703125-6.70947265625,19.4130859375-.0267333984375.3990478515625-.2371826171875,4.18182373046875.3128662109375,8.161376953125,2.6090087890625,18.8780517578125,20.8121337890625,32.6387939453125,22.330322265625,31.14892578125,1.4854736328125-1.457763671875-19.8448486328125-19.35833740234375-16.747802734375-40.34039306640625,2.16796875-14.6878662109375,15.0745849609375-22.542449951171875,15.8173828125-22.978729248046875,12.402099609375-7.284576416015625,24.8345947265625-2.30322265625,29.3084716796875-.510650634765625,2.997314453125,1.200927734375,21.456787109375,9.028350830078125,26.5172119140625,30.6383056640625,3.998779296875,17.075927734375-2.489990234375,33.698974609375-12.0955810546875,43.40423583984375-13.3824462890625,13.5216064453125-31.2357177734375,12.0201416015625-33.9605712890625,11.74468994140625-31.427490234375-3.1773681640625-35.740478515625-39.81719970703125-68.4049072265625-43.80682373046875-2.8907470703125-.35302734375-24.9205322265625-2.70855712890625-35.7403564453125,12.3951416015625-6.296875,8.7899169921875-6.3524169921875,20.08062744140625-6.3433837890625,21.4542236328125.064697265625,9.864990234375,4.05908203125,18.90966796875,5.3499755859375,18.6383056640625Z"/>
</svg>